<svg width="37" height="36" viewBox="0 0 37 36" fill="none" xmlns="http://www.w3.org/2000/svg">
<g clip-path="url(#clip0_consultation)">
<circle cx="18.5" cy="12" r="6" fill="url(#paint0_linear_consultation)"/>
<path fill-rule="evenodd" clip-rule="evenodd" d="M30.5 31.5C30.5 24.6 25.4 19 18.5 19C11.6 19 6.5 24.6 6.5 31.5H8.5C8.5 25.7 12.7 21 18.5 21C24.3 21 28.5 25.7 28.5 31.5H30.5Z" fill="url(#paint1_linear_consultation)"/>
<circle cx="25" cy="8" r="3" fill="url(#paint2_linear_consultation)"/>
<path d="M23.5 7H26.5V9H23.5V7Z" fill="white"/>
<path d="M24.5 6H25.5V10H24.5V6Z" fill="white"/>
<rect x="12.5" y="26.5" width="12" height="2" rx="1" fill="url(#paint3_linear_consultation)"/>
<rect x="12.5" y="29.5" width="8" height="2" rx="1" fill="url(#paint4_linear_consultation)"/>
</g>
<defs>
<linearGradient id="paint0_linear_consultation" x1="12.5" y1="6" x2="12.5" y2="18" gradientUnits="userSpaceOnUse">
<stop stop-color="#F093FB"/>
<stop offset="1" stop-color="#F5576C"/>
</linearGradient>
<linearGradient id="paint1_linear_consultation" x1="6.5" y1="19" x2="6.5" y2="31.5" gradientUnits="userSpaceOnUse">
<stop stop-color="#F093FB"/>
<stop offset="1" stop-color="#F5576C"/>
</linearGradient>
<linearGradient id="paint2_linear_consultation" x1="22" y1="5" x2="22" y2="11" gradientUnits="userSpaceOnUse">
<stop stop-color="#4ECDC4"/>
<stop offset="1" stop-color="#44A08D"/>
</linearGradient>
<linearGradient id="paint3_linear_consultation" x1="12.5" y1="26.5" x2="12.5" y2="28.5" gradientUnits="userSpaceOnUse">
<stop stop-color="#F093FB"/>
<stop offset="1" stop-color="#F5576C"/>
</linearGradient>
<linearGradient id="paint4_linear_consultation" x1="12.5" y1="29.5" x2="12.5" y2="31.5" gradientUnits="userSpaceOnUse">
<stop stop-color="#F093FB"/>
<stop offset="1" stop-color="#F5576C"/>
</linearGradient>
<clipPath id="clip0_consultation">
<rect width="36" height="36" fill="white" transform="translate(0.5)"/>
</clipPath>
</defs>
</svg>
