<svg width="37" height="36" viewBox="0 0 37 36" fill="none" xmlns="http://www.w3.org/2000/svg">
<g clip-path="url(#clip0_emergency)">
<path fill-rule="evenodd" clip-rule="evenodd" d="M31.5 30.5V22.5C31.5 20.6 29.9 19 28 19H26V17.5C26 15.6 24.4 14 22.5 14H14.5C12.6 14 11 15.6 11 17.5V19H9C7.1 19 5.5 20.6 5.5 22.5V30.5C5.5 32.4 7.1 34 9 34H28C29.9 34 31.5 32.4 31.5 30.5ZM13 17.5C13 16.7 13.7 16 14.5 16H22.5C23.3 16 24 16.7 24 17.5V19H13V17.5ZM7.5 22.5C7.5 21.7 8.2 21 9 21H28C28.8 21 29.5 21.7 29.5 22.5V30.5C29.5 31.3 28.8 32 28 32H9C8.2 32 7.5 31.3 7.5 30.5V22.5Z" fill="url(#paint0_linear_emergency)"/>
<path fill-rule="evenodd" clip-rule="evenodd" d="M20.5 28.5H22.5C23 28.5 23.5 28 23.5 27.5C23.5 27 23 26.5 22.5 26.5H20.5V24.5C20.5 24 20 23.5 19.5 23.5C19 23.5 18.5 24 18.5 24.5V26.5H16.5C16 26.5 15.5 27 15.5 27.5C15.5 28 16 28.5 16.5 28.5H18.5V30.5C18.5 31 19 31.5 19.5 31.5C20 31.5 20.5 31 20.5 30.5V28.5Z" fill="url(#paint1_linear_emergency)"/>
<circle cx="18.5" cy="9.5" r="4" fill="url(#paint2_linear_emergency)"/>
<path d="M16.5 8.5H20.5V10.5H16.5V8.5Z" fill="white"/>
<path d="M17.5 7.5H19.5V11.5H17.5V7.5Z" fill="white"/>
</g>
<defs>
<linearGradient id="paint0_linear_emergency" x1="5.5" y1="14" x2="5.5" y2="34" gradientUnits="userSpaceOnUse">
<stop stop-color="#FF6B6B"/>
<stop offset="1" stop-color="#FF8E8E"/>
</linearGradient>
<linearGradient id="paint1_linear_emergency" x1="15.5" y1="23.5" x2="15.5" y2="31.5" gradientUnits="userSpaceOnUse">
<stop stop-color="#FF4757"/>
<stop offset="1" stop-color="#FF6B6B"/>
</linearGradient>
<linearGradient id="paint2_linear_emergency" x1="14.5" y1="5.5" x2="14.5" y2="13.5" gradientUnits="userSpaceOnUse">
<stop stop-color="#FF4757"/>
<stop offset="1" stop-color="#FF6B6B"/>
</linearGradient>
<clipPath id="clip0_emergency">
<rect width="36" height="36" fill="white" transform="translate(0.5)"/>
</clipPath>
</defs>
</svg>
