<svg width="37" height="36" viewBox="0 0 37 36" fill="none" xmlns="http://www.w3.org/2000/svg">
<g clip-path="url(#clip0_pharmacy)">
<path fill-rule="evenodd" clip-rule="evenodd" d="M29.5 31.5H7.5C6.1 31.5 5 30.4 5 29V12C5 10.6 6.1 9.5 7.5 9.5H11V7.5C11 6.1 12.1 5 13.5 5H23.5C24.9 5 26 6.1 26 7.5V9.5H29.5C30.9 9.5 32 10.6 32 12V29C32 30.4 30.9 31.5 29.5 31.5ZM13 7.5C13 7.2 13.2 7 13.5 7H23.5C23.8 7 24 7.2 24 7.5V9.5H13V7.5ZM7 12C7 11.7 7.2 11.5 7.5 11.5H29.5C29.8 11.5 30 11.7 30 12V29C30 29.3 29.8 29.5 29.5 29.5H7.5C7.2 29.5 7 29.3 7 29V12Z" fill="url(#paint0_linear_pharmacy)"/>
<rect x="12.5" y="16.5" width="12" height="2" rx="1" fill="url(#paint1_linear_pharmacy)"/>
<rect x="12.5" y="20.5" width="8" height="2" rx="1" fill="url(#paint2_linear_pharmacy)"/>
<rect x="12.5" y="24.5" width="10" height="2" rx="1" fill="url(#paint3_linear_pharmacy)"/>
<circle cx="26" cy="17.5" r="1.5" fill="url(#paint4_linear_pharmacy)"/>
<circle cx="26" cy="21.5" r="1.5" fill="url(#paint5_linear_pharmacy)"/>
<circle cx="26" cy="25.5" r="1.5" fill="url(#paint6_linear_pharmacy)"/>
</g>
<defs>
<linearGradient id="paint0_linear_pharmacy" x1="5" y1="5" x2="5" y2="31.5" gradientUnits="userSpaceOnUse">
<stop stop-color="#4ECDC4"/>
<stop offset="1" stop-color="#44A08D"/>
</linearGradient>
<linearGradient id="paint1_linear_pharmacy" x1="12.5" y1="16.5" x2="12.5" y2="18.5" gradientUnits="userSpaceOnUse">
<stop stop-color="#4ECDC4"/>
<stop offset="1" stop-color="#44A08D"/>
</linearGradient>
<linearGradient id="paint2_linear_pharmacy" x1="12.5" y1="20.5" x2="12.5" y2="22.5" gradientUnits="userSpaceOnUse">
<stop stop-color="#4ECDC4"/>
<stop offset="1" stop-color="#44A08D"/>
</linearGradient>
<linearGradient id="paint3_linear_pharmacy" x1="12.5" y1="24.5" x2="12.5" y2="26.5" gradientUnits="userSpaceOnUse">
<stop stop-color="#4ECDC4"/>
<stop offset="1" stop-color="#44A08D"/>
</linearGradient>
<linearGradient id="paint4_linear_pharmacy" x1="24.5" y1="16" x2="24.5" y2="19" gradientUnits="userSpaceOnUse">
<stop stop-color="#4ECDC4"/>
<stop offset="1" stop-color="#44A08D"/>
</linearGradient>
<linearGradient id="paint5_linear_pharmacy" x1="24.5" y1="20" x2="24.5" y2="23" gradientUnits="userSpaceOnUse">
<stop stop-color="#4ECDC4"/>
<stop offset="1" stop-color="#44A08D"/>
</linearGradient>
<linearGradient id="paint6_linear_pharmacy" x1="24.5" y1="24" x2="24.5" y2="27" gradientUnits="userSpaceOnUse">
<stop stop-color="#4ECDC4"/>
<stop offset="1" stop-color="#44A08D"/>
</linearGradient>
<clipPath id="clip0_pharmacy">
<rect width="36" height="36" fill="white" transform="translate(0.5)"/>
</clipPath>
</defs>
</svg>
